{"accessors":[{"bufferView":0,"componentType":5126,"count":7026,"max":[135.300994873047,32.8458251953125,35.3320007324219],"min":[-135.300888061523,-0.523743867874146,-45.731689453125],"normalized":false,"type":"VEC3"},{"bufferView":1,"componentType":5126,"count":7026,"max":[1.0,1.0,1.0,1.0],"min":[-1.0,-1.0,-1.0,-1.0],"normalized":false,"type":"VEC4"},{"bufferView":2,"componentType":5126,"count":7026,"max":[1.0,1.0,1.0],"min":[-1.0,-1.0,-1.0],"normalized":false,"type":"VEC3"},{"bufferView":3,"componentType":5126,"count":7026,"max":[1.0,1.0],"min":[0.0,0.0],"normalized":false,"type":"VEC2"},{"bufferView":4,"componentType":5123,"count":7026,"max":[7025.0],"min":[0.0],"normalized":false,"type":"SCALAR"},{"bufferView":5,"componentType":5126,"count":4176,"max":[154.743713378906,81.1393280029297,65.0209197998047],"min":[-135.221694946289,-48.8606758117676,-70.3690032958984],"normalized":false,"type":"VEC3"},{"bufferView":6,"componentType":5126,"count":4176,"max":[1.0,1.0,1.0,1.0],"min":[-1.0,-0.999482393264771,-1.0,-1.0],"normalized":false,"type":"VEC4"},{"bufferView":7,"componentType":5126,"count":4176,"max":[1.0,1.0,1.0],"min":[-1.0,-1.0,-1.0],"normalized":false,"type":"VEC3"},{"bufferView":8,"componentType":5126,"count":4176,"max":[1.0,1.0],"min":[0.0,0.0],"normalized":false,"type":"VEC2"},{"bufferView":9,"componentType":5123,"count":4176,"max":[4175.0],"min":[0.0],"normalized":false,"type":"SCALAR"}],"asset":{"generator":"Godot Engine v4.5.1.stable.mono.official@f62fdbde15035c5576dad93e586201f4d41ef0cb","version":"2.0"},"bufferViews":[{"buffer":0,"byteLength":84312,"byteStride":12,"target":34962},{"buffer":0,"byteLength":112416,"byteOffset":84312,"byteStride":16,"target":34962},{"buffer":0,"byteLength":84312,"byteOffset":196728,"byteStride":12,"target":34962},{"buffer":0,"byteLength":56208,"byteOffset":281040,"byteStride":8,"target":34962},{"buffer":0,"byteLength":14052,"byteOffset":337248,"target":34963},{"buffer":0,"byteLength":50112,"byteOffset":351300,"byteStride":12,"target":34962},{"buffer":0,"byteLength":66816,"byteOffset":401412,"byteStride":16,"target":34962},{"buffer":0,"byteLength":50112,"byteOffset":468228,"byteStride":12,"target":34962},{"buffer":0,"byteLength":33408,"byteOffset":518340,"byteStride":8,"target":34962},{"buffer":0,"byteLength":8352,"byteOffset":551748,"target":34963}],"buffers":[{"byteLength":560100,"uri":"data center0.bin"}],"extensionsUsed":["GODOT_single_root"],"materials":[{},{}],"meshes":[{"primitives":[{"attributes":{"NORMAL":2,"POSITION":0,"TANGENT":1,"TEXCOORD_0":3},"indices":4,"material":0,"mode":4}]},{"primitives":[{"attributes":{"NORMAL":7,"POSITION":5,"TANGENT":6,"TEXCOORD_0":8},"indices":9,"material":1,"mode":4}]}],"nodes":[{"children":[1,2],"name":"Node3D"},{"mesh":0,"name":"CSGBakedMeshInstance3D"},{"mesh":1,"name":"CSGBakedMeshInstance3D2","translation":[-9.98600006103516,0.0,0.0]}],"scene":0,"scenes":[{"nodes":[0]}]}